<?xml version="1.0" standalone="no"?><!DOCTYPE svg PUBLIC "-//W3C//DTD SVG 1.1//EN" "http://www.w3.org/Graphics/SVG/1.1/DTD/svg11.dtd"><svg t="1629514731809" class="icon" viewBox="0 0 1024 1024" version="1.1" xmlns="http://www.w3.org/2000/svg" p-id="57369" xmlns:xlink="http://www.w3.org/1999/xlink" width="200" height="200"><defs><style type="text/css"></style></defs><path d="M711.1168 78.6432h-35.3792v161.5872c0 33.9968 27.5968 61.5936 61.5936 61.5936h166.6048v-30.3104c0-9.7792-3.8912-19.2-10.8032-26.112l-155.904-155.904a36.8128 36.8128 0 0 0-26.112-10.8544z" fill="#11eeff" p-id="57370" data-spm-anchor-id="a313x.7781069.0.i147" class=""></path><path d="M737.3312 358.5024c-65.1776 0-118.2208-53.0432-118.2208-118.2208V81.1008H234.1888c-48.9984 0-88.6784 39.68-88.6784 88.6784v684.288c0 48.9984 39.68 88.6784 88.6784 88.6784h578.6624c48.9984 0 88.6784-39.68 88.6784-88.6784v-495.616h-164.1984z m-384.3072-39.8336h211.3536c16.3328 0 29.5424 13.2608 29.5424 29.5424s-13.2608 29.5424-29.5424 29.5424H353.024c-16.3328 0-29.5424-13.2608-29.5424-29.5424s13.2096-29.5424 29.5424-29.5424z m340.8896 425.984H353.024c-16.3328 0-29.5424-13.2608-29.5424-29.5424 0-16.3328 13.2608-29.5424 29.5424-29.5424h340.8896c16.3328 0 29.5424 13.2608 29.5424 29.5424 0.0512 16.3328-13.2096 29.5424-29.5424 29.5424z m0-183.4496H353.024c-16.3328 0-29.5424-13.2608-29.5424-29.5424 0-16.3328 13.2608-29.5424 29.5424-29.5424h340.8896c16.3328 0 29.5424 13.2608 29.5424 29.5424 0.0512 16.3328-13.2096 29.5424-29.5424 29.5424z" fill="#9955cc" p-id="57371" data-spm-anchor-id="a313x.7781069.0.i146" class="selected"></path></svg>