<?xml version="1.0" standalone="no"?><!DOCTYPE svg PUBLIC "-//W3C//DTD SVG 1.1//EN" "http://www.w3.org/Graphics/SVG/1.1/DTD/svg11.dtd"><svg t="1629510189804" class="icon" viewBox="0 0 1024 1024" version="1.1" xmlns="http://www.w3.org/2000/svg" p-id="16522" id="mx_n_1629510189806" xmlns:xlink="http://www.w3.org/1999/xlink" width="200" height="200"><defs><style type="text/css"></style></defs><path d="M102.36928 667.9552h837.36576v140.86144l-61.79328 57.6256H168.12544l-76.83072-60.74368z" fill="#22ccee" p-id="16523" data-spm-anchor-id="a313x.7781069.0.i28" class=""></path><path d="M323.1744 442.41408a33.792 33.792 0 0 0-33.43872 34.10432v59.0336a33.44384 33.44384 0 1 0 66.87744 0V476.5184a33.792 33.792 0 0 0-33.43872-34.10432z m0 153.45152a33.792 33.792 0 0 0-33.43872 34.10432v59.02336a33.44384 33.44384 0 1 0 66.87744 0v-59.02336a33.792 33.792 0 0 0-33.43872-34.10432z m0-306.90816a33.792 33.792 0 0 0-33.43872 34.11456v59.01312a33.44384 33.44384 0 1 0 66.87744 0V323.072a33.792 33.792 0 0 0-33.43872-34.11456z m615.59296 131.77856A52.736 52.736 0 0 0 983.04 367.98976V303.72352C983.04 220.94336 916.992 153.6 835.85536 153.6H198.38464C117.248 153.6 51.2 220.94336 51.2 303.72352v64.6912a52.9152 52.9152 0 0 0 43.4176 52.60288 86.55872 86.55872 0 0 1 0 170.02496A52.9152 52.9152 0 0 0 51.2 643.64544v71.51616C51.2 797.93664 117.248 865.28 198.38464 865.28h637.47072C916.992 865.28 983.04 797.93664 983.04 715.1616V644.096a52.736 52.736 0 0 0-44.27264-52.736 86.59456 86.59456 0 0 1 0-170.624z m-22.6048 235.52v58.88a81.20832 81.20832 0 0 1-80.3072 81.92h-479.232v-13.63968a33.44384 33.44384 0 1 0-66.87744 0v13.63968H198.38464a81.20832 81.20832 0 0 1-80.3072-81.92v-59.50464a155.26912 155.26912 0 0 0 0-299.20256V303.72352a81.20832 81.20832 0 0 1 80.3072-81.92h91.35104v6.81984a33.44384 33.44384 0 1 0 66.87744 0v-6.8096h479.232a81.20832 81.20832 0 0 1 80.3072 81.92v52.0704a155.29984 155.29984 0 0 0 0.01024 300.45184z m-209.47968-143.40608a34.11456 34.11456 0 0 0 0-68.20864h-42.95168l45.16352-64.256a34.55488 34.55488 0 0 0-7.68-47.616 33.02912 33.02912 0 0 0-46.66368 7.84896l-63.8976 90.91584-64-85.9648a33.00864 33.00864 0 0 0-46.85312-6.54336 34.56 34.56 0 0 0-6.40512 47.79008l43.04384 57.82016h-41.37984a34.11456 34.11456 0 0 0 0 68.20864h82.18624v40.92928H475.0592a34.11456 34.11456 0 0 0 0 68.21376h82.18624v63.66208a33.44384 33.44384 0 1 0 66.87744 0v-63.65696h82.56a34.11456 34.11456 0 0 0 0-68.21376H624.128v-40.92928h82.56z" fill="#9955bc" p-id="16524" data-spm-anchor-id="a313x.7781069.0.i29" class="selected"></path></svg>