<?xml version="1.0" standalone="no"?><!DOCTYPE svg PUBLIC "-//W3C//DTD SVG 1.1//EN" "http://www.w3.org/Graphics/SVG/1.1/DTD/svg11.dtd"><svg t="1629510366026" class="icon" viewBox="0 0 1024 1024" version="1.1" xmlns="http://www.w3.org/2000/svg" p-id="19426" data-spm-anchor-id="a313x.7781069.0.i33" xmlns:xlink="http://www.w3.org/1999/xlink" width="200" height="200"><defs><style type="text/css"></style></defs><path d="M317.696 261.4784a31.2832 31.2832 0 0 1-31.2832-31.2832V121.2416a31.2832 31.2832 0 0 1 31.2832-31.2832 31.2832 31.2832 0 0 1 31.2832 31.2832v109.0048c0 17.2544-14.0288 31.232-31.2832 31.232zM726.1184 261.4784a31.2832 31.2832 0 0 1-31.2832-31.2832V121.2416a31.2832 31.2832 0 0 1 31.2832-31.2832 31.2832 31.2832 0 0 1 31.2832 31.2832v109.0048a31.232 31.232 0 0 1-31.2832 31.232z" fill="#9955bc" p-id="19427" data-spm-anchor-id="a313x.7781069.0.i31" class=""></path><path d="M957.6448 365.2608V266.24c0-51.8144-41.984-93.7984-93.7984-93.7984h-43.8784v57.8048c0 51.8144-41.984 93.7984-93.7984 93.7984s-93.7984-41.984-93.7984-93.7984V172.4416H411.4944v57.8048c0 51.8144-41.984 93.7984-93.7984 93.7984s-93.7984-41.984-93.7984-93.7984V172.4416H165.376c-51.8144 0-93.7984 41.984-93.7984 93.7984v99.0208h886.0672zM808.3968 607.744c-90.88 0-164.864 73.9328-164.864 164.864s73.9328 164.864 164.864 164.864c90.88 0 164.864-73.9328 164.864-164.864s-73.984-164.864-164.864-164.864z m77.2608 190.9248h-77.312c-14.3872 0-26.0608-11.6736-26.0608-26.0608v-103.8848c0-14.3872 11.6736-26.0608 26.0608-26.0608s26.0608 11.6736 26.0608 26.0608v77.824h51.2512c14.3872 0 26.0608 11.6736 26.0608 26.0608s-11.6736 26.0608-26.0608 26.0608z" fill="#22ccee" p-id="19428" data-spm-anchor-id="a313x.7781069.0.i32" class=""></path><path d="M71.5776 417.3824v417.0752c0 51.8144 41.984 93.7984 93.7984 93.7984h483.584c-39.2704-40.192-63.5392-95.1296-63.5392-155.648 0-122.9312 99.9936-222.976 222.976-222.976 57.344 0 109.6704 21.76 149.248 57.4464V417.3824H71.5776z m367.0016 339.7632H220.2112c-13.568 0-24.576-11.6736-24.576-26.0608s11.008-26.0608 24.576-26.0608h218.368c13.568 0 24.576 11.6736 24.576 26.0608s-11.008 26.0608-24.576 26.0608z m0-169.6768H220.2112c-13.568 0-24.576-11.6736-24.576-26.0608s11.008-26.0608 24.576-26.0608h218.368c13.568 0 24.576 11.6736 24.576 26.0608s-11.008 26.0608-24.576 26.0608z" fill="#9955bc" p-id="19429" data-spm-anchor-id="a313x.7781069.0.i34" class=""></path></svg>